<?xml version="1.0" standalone="no"?><!DOCTYPE svg PUBLIC "-//W3C//DTD SVG 1.1//EN" "http://www.w3.org/Graphics/SVG/1.1/DTD/svg11.dtd"><svg height="600" node-id="1" sillyvg="true" template-height="600" template-width="600" version="1.1" viewBox="0 0 600 600" width="600" xmlns="http://www.w3.org/2000/svg" xmlns:xlink="http://www.w3.org/1999/xlink"><defs node-id="13"></defs><g node-id="27"><path d="M 262.10 315.70 L 262.30 307.40 L 263.00 299.00 L 264.30 290.50 L 266.10 282.00 L 268.40 273.60 L 271.20 265.20 L 274.50 257.00 L 278.40 248.80 L 282.60 240.80 L 287.30 233.10 L 292.50 225.60 L 298.10 218.30 L 304.10 211.30 L 310.50 204.80 L 317.30 198.50 L 324.60 192.60 L 332.20 187.20 L 340.10 182.30 L 348.50 177.90 L 357.30 173.90 L 366.10 170.80 L 375.10 168.20 L 384.20 166.30 L 393.50 165.00 L 399.80 164.70 L 403.70 165.40 L 405.30 166.20 L 406.60 167.50 L 407.70 169.30 L 409.30 174.50 L 409.60 177.00 L 409.30 179.30 L 407.60 182.30 L 399.10 190.50 L 394.80 195.20 L 390.70 200.30 L 386.90 205.70 L 382.20 213.30 L 378.00 221.30 L 374.30 229.70 L 371.10 238.50 L 368.50 247.40 L 366.50 256.60 L 365.00 265.90 L 364.20 275.20 L 364.00 284.60 L 364.30 291.60 L 365.00 298.50 L 367.50 312.00 L 368.80 316.70 L 372.20 325.60 L 376.60 334.10 L 379.30 338.20 L 382.30 342.10 L 388.80 348.40 L 392.20 350.90 L 395.70 353.10 L 399.40 354.90 L 403.20 356.20 L 407.20 357.20 L 411.20 357.70 L 415.40 357.90 L 423.60 356.90 L 427.90 355.80 L 432.30 354.20 L 436.80 352.20 L 441.20 349.70 L 449.30 344.00 L 454.80 339.00 L 465.10 328.10 L 467.00 327.00 L 469.10 326.50 L 471.20 326.60 L 473.20 327.40 L 475.50 329.10 L 476.90 331.50 L 477.20 332.90 L 476.50 341.00 L 475.20 347.50 L 473.30 353.90 L 470.80 360.10 L 467.80 366.10 L 460.70 377.40 L 452.20 388.70 L 447.40 394.10 L 442.30 398.90 L 437.10 403.30 L 431.40 407.30 L 425.60 410.90 L 419.60 414.20 L 413.30 417.00 L 404.60 420.30 L 395.60 423.10 L 386.30 425.30 L 378.90 426.60 L 371.60 427.40 L 364.30 427.60 L 356.90 427.30 L 349.70 426.50 L 342.40 425.10 L 335.30 423.20 L 328.40 420.80 L 321.60 417.90 L 314.50 414.20 L 308.00 410.30 L 302.10 406.00 L 296.60 401.40 L 291.40 396.30 L 286.70 390.90 L 282.40 385.20 L 278.50 379.10 L 275.00 372.80 L 271.90 366.10 L 269.20 359.10 L 266.80 351.70 L 263.70 338.90 L 262.30 327.80 L 262.10 315.70 Z" fill="#ffbf8b" fill-rule="nonzero" group-id="1" node-id="17" stroke="none" target-height="262.90002" target-width="215.1" target-x="262.1" target-y="164.7"></path><path d="M 159.50 505.00 L 156.60 504.80 L 154.50 504.30 L 152.90 503.50 L 151.50 502.30 L 149.50 499.30 L 147.60 494.60 L 146.30 489.70 L 144.70 479.70 L 141.50 442.10 L 138.60 424.60 L 137.80 421.90 L 136.60 419.80 L 134.20 417.70 L 132.40 416.70 L 121.00 412.30 L 103.40 406.30 L 97.40 403.90 L 91.70 401.20 L 86.10 398.00 L 83.10 396.00 L 78.00 391.10 L 76.40 388.60 L 75.50 386.20 L 75.20 384.00 L 75.40 381.70 L 76.20 379.70 L 77.60 377.90 L 79.30 376.40 L 81.60 375.30 L 84.50 374.60 L 95.10 373.40 L 125.90 370.40 L 127.70 370.10 L 128.70 369.40 L 129.40 368.30 L 129.90 366.60 L 131.70 355.50 L 136.60 333.60 L 145.20 301.20 L 148.00 293.20 L 149.20 291.00 L 150.90 289.30 L 152.10 288.50 L 155.30 287.70 L 157.20 287.80 L 160.50 288.80 L 161.90 289.70 L 164.10 292.60 L 166.10 297.00 L 167.60 301.50 L 170.30 311.70 L 172.50 321.90 L 174.20 332.10 L 175.50 342.50 L 176.60 359.20 L 177.50 362.30 L 179.60 364.80 L 189.50 370.90 L 199.40 379.50 L 202.30 381.40 L 212.80 386.60 L 216.90 389.00 L 218.80 390.70 L 220.20 392.40 L 221.00 394.10 L 221.40 396.00 L 221.30 397.90 L 220.80 399.70 L 219.80 401.40 L 218.30 403.10 L 216.20 404.70 L 213.40 406.20 L 207.40 408.30 L 189.10 411.10 L 186.70 412.30 L 186.00 413.40 L 180.70 446.50 L 177.80 460.90 L 174.50 475.20 L 171.30 485.90 L 167.70 496.50 L 165.80 500.30 L 162.80 503.40 L 159.50 505.00 Z" fill="#ffbf8b" fill-rule="nonzero" group-id="1" node-id="19" stroke="none" target-height="217.29999" target-width="146.2" target-x="75.2" target-y="287.7"></path><path d="M 381.80 183.90 L 382.00 185.20 L 381.30 187.20 L 373.90 197.20 L 369.10 204.90 L 364.80 212.70 L 361.10 220.70 L 357.80 228.70 L 355.00 236.90 L 352.80 245.30 L 350.90 253.80 L 349.60 262.50 L 348.70 271.30 L 348.30 280.40 L 348.40 289.70 L 348.90 298.10 L 350.10 306.40 L 351.80 314.50 L 355.50 326.40 L 357.90 332.20 L 363.40 342.90 L 366.50 347.50 L 370.00 351.90 L 373.80 356.10 L 379.50 361.20 L 385.30 365.30 L 391.10 368.60 L 397.10 371.00 L 403.10 372.70 L 409.30 373.70 L 415.70 373.80 L 422.40 373.20 L 429.30 371.80 L 436.70 369.50 L 449.30 363.80 L 449.80 365.80 L 449.10 367.20 L 439.40 379.30 L 435.40 383.80 L 430.90 388.10 L 425.80 392.20 L 420.40 395.90 L 414.50 399.30 L 408.20 402.30 L 401.70 405.00 L 395.00 407.20 L 388.10 409.00 L 381.10 410.40 L 374.00 411.30 L 366.90 411.70 L 359.80 411.60 L 352.90 410.90 L 346.10 409.80 L 339.40 408.00 L 333.10 405.90 L 327.20 403.50 L 321.80 400.70 L 316.60 397.60 L 311.80 394.10 L 307.40 390.30 L 302.50 385.40 L 298.10 380.10 L 294.00 374.30 L 290.20 368.00 L 286.90 361.20 L 283.90 353.80 L 281.70 346.90 L 280.00 340.10 L 278.70 333.30 L 277.80 326.60 L 277.50 319.70 L 277.60 311.20 L 278.30 302.60 L 279.70 294.00 L 281.70 285.40 L 284.60 275.70 L 287.90 266.60 L 291.60 258.00 L 295.70 249.80 L 300.30 242.00 L 305.20 234.60 L 310.70 227.60 L 316.50 221.00 L 322.90 214.70 L 329.70 208.80 L 337.10 203.30 L 345.00 198.20 L 353.50 193.40 L 362.60 189.00 L 366.20 187.50 L 377.80 184.00 L 381.80 183.90 Z" fill="#ffbf8b" fill-rule="nonzero" group-id="1" node-id="21" stroke="none" target-height="227.80002" target-width="172.29999" target-x="277.5" target-y="183.9"></path><path d="M 159.60 462.80 L 156.60 435.20 L 154.90 425.80 L 152.80 416.40 L 151.80 413.40 L 150.40 410.80 L 148.80 408.60 L 146.80 406.60 L 144.40 405.00 L 141.30 403.50 L 123.40 396.60 L 108.20 391.40 L 106.90 390.70 L 106.60 390.20 L 106.70 389.30 L 107.30 388.40 L 108.20 388.00 L 122.30 385.40 L 131.10 385.20 L 135.00 384.70 L 138.80 383.70 L 141.00 382.80 L 142.60 381.70 L 143.70 380.50 L 144.40 379.10 L 144.80 377.30 L 144.40 371.10 L 145.10 363.80 L 153.70 330.20 L 156.00 324.30 L 157.10 326.70 L 157.70 328.80 L 159.00 336.90 L 162.00 376.30 L 163.30 380.30 L 165.50 382.80 L 166.90 383.50 L 168.50 383.80 L 170.40 383.70 L 174.60 382.60 L 176.70 382.30 L 180.90 382.70 L 182.80 383.30 L 184.30 384.20 L 188.10 387.60 L 195.10 391.50 L 199.00 394.00 L 197.70 394.80 L 195.70 395.50 L 190.90 396.10 L 183.00 396.50 L 180.00 397.30 L 177.50 398.40 L 175.50 399.80 L 173.80 401.40 L 172.50 403.30 L 171.40 405.50 L 170.60 408.10 L 168.60 423.40 L 166.70 435.50 L 161.80 459.60 L 160.90 462.60 Z" fill="#ffbf8b" fill-rule="nonzero" group-id="1" node-id="23" stroke="none" target-height="138.5" target-width="92.4" target-x="106.6" target-y="324.3"></path><path d="M 0.00 0.00 L 600.00 0.00 L 600.00 600.00 L 0.00 600.00 Z" fill="none" group-id="1" node-id="25" stroke="none" target-height="600" target-width="600" target-x="0" target-y="0"></path></g></svg>