<?xml version="1.0" standalone="no"?><!DOCTYPE svg PUBLIC "-//W3C//DTD SVG 1.1//EN" "http://www.w3.org/Graphics/SVG/1.1/DTD/svg11.dtd"><svg height="1024" node-id="1" sillyvg="true" template-height="1024" template-width="1024" version="1.1" viewBox="0 0 1024 1024" width="1024" xmlns="http://www.w3.org/2000/svg" xmlns:xlink="http://www.w3.org/1999/xlink"><defs node-id="15"></defs><g node-id="38"><path d="M 532.40 264.30 L 539.20 263.90 L 544.80 263.10 L 551.00 261.60 L 558.90 259.10 L 570.30 254.20 L 576.90 250.60 L 583.40 246.70 L 590.40 241.90 L 597.90 236.10 L 605.10 229.80 L 612.80 222.40 L 620.90 213.70 L 632.50 199.60 L 638.60 191.30 L 650.70 172.80 L 656.60 162.70 L 662.70 151.50 L 671.20 134.30 L 675.50 127.70 L 678.50 124.40 L 680.80 122.40 L 683.30 120.70 L 686.20 119.30 L 689.30 118.30 L 692.70 117.90 L 696.50 118.10 L 702.20 119.60 L 705.60 121.20 L 712.60 125.60 L 716.30 128.60 L 724.90 137.20 L 730.30 143.70 L 736.40 152.00 L 743.30 162.30 L 749.70 172.90 L 756.80 185.70 L 764.60 201.10 L 758.50 207.80 L 752.30 213.30 L 741.80 221.30 L 726.50 231.30 L 717.00 236.70 L 705.60 242.70 L 694.10 248.20 L 680.50 254.10 L 664.80 260.40 L 648.80 266.20 L 630.60 272.20 L 609.80 278.40 L 577.40 286.80 L 538.80 295.20 L 532.40 264.30 Z" fill="#fa8484" fill-rule="nonzero" group-id="1" node-id="21" stroke="#26282b" stroke-linecap="round" stroke-width="16" target-height="177.30002" target-width="232.19995" target-x="532.4" target-y="117.9"></path><path d="M 532.40 281.50 L 544.90 282.00 L 555.20 281.90 L 566.50 281.30 L 581.00 279.90 L 590.90 278.60 L 614.10 274.30 L 626.20 271.50 L 639.10 267.90 L 652.90 263.60 L 663.00 260.00 L 684.20 251.20 L 695.40 246.00 L 706.20 240.40 L 717.20 234.30 L 728.50 227.50 L 740.00 219.90 L 751.10 212.10 L 762.30 203.50 L 773.60 194.10 L 785.00 183.90 L 786.90 182.50 L 792.40 179.80 L 796.00 178.50 L 800.50 177.50 L 807.00 177.10 L 810.70 177.50 L 814.40 178.20 L 818.20 179.60 L 822.30 181.60 L 826.20 184.10 L 830.30 187.40 L 834.60 191.80 L 837.50 195.20 L 843.60 204.20 L 846.90 209.80 L 850.60 217.40 L 854.50 226.60 L 858.40 237.60 L 861.80 248.80 L 865.20 261.80 L 868.50 277.00 L 869.10 281.70 L 869.10 286.20 L 868.50 290.60 L 867.30 294.80 L 865.60 298.80 L 863.40 302.60 L 860.80 306.10 L 857.70 309.20 L 854.20 311.90 L 850.40 314.10 L 846.20 315.80 L 841.70 317.10 L 811.60 322.40 L 774.10 327.70 L 753.40 329.90 L 715.60 332.80 L 683.40 333.80 L 667.00 333.80 L 650.40 333.40 L 633.40 332.50 L 616.50 331.20 L 599.60 329.40 L 582.60 327.00 L 569.90 324.80 L 557.30 322.30 L 532.40 316.20 L 532.40 281.50 Z" fill="#fa8484" fill-rule="nonzero" group-id="1" node-id="23" stroke="#26282b" stroke-linecap="round" stroke-width="16" target-height="156.69998" target-width="336.69995" target-x="532.4" target-y="177.1"></path><path d="M 491.60 264.30 L 484.80 263.90 L 479.20 263.10 L 473.00 261.60 L 465.10 259.10 L 453.70 254.20 L 447.10 250.60 L 440.60 246.70 L 433.60 241.90 L 426.10 236.10 L 418.90 229.80 L 411.20 222.40 L 403.10 213.70 L 391.50 199.60 L 385.40 191.30 L 373.30 172.80 L 367.40 162.70 L 361.30 151.50 L 352.80 134.30 L 348.50 127.70 L 345.50 124.40 L 343.20 122.40 L 340.70 120.70 L 337.80 119.30 L 334.70 118.30 L 331.30 117.90 L 327.50 118.10 L 321.80 119.60 L 318.40 121.20 L 311.40 125.60 L 307.70 128.60 L 299.10 137.20 L 293.70 143.70 L 287.60 152.00 L 280.70 162.30 L 274.30 172.90 L 267.20 185.70 L 259.40 201.10 L 265.50 207.80 L 271.70 213.30 L 282.20 221.30 L 297.50 231.30 L 307.00 236.70 L 318.40 242.70 L 329.90 248.20 L 343.50 254.10 L 359.20 260.40 L 375.20 266.20 L 393.40 272.20 L 414.20 278.40 L 446.60 286.80 L 485.20 295.20 L 491.60 264.30 Z" fill="#fa8484" fill-rule="nonzero" group-id="1" node-id="25" stroke="#26282b" stroke-linecap="round" stroke-width="16" target-height="177.30002" target-width="232.20001" target-x="259.4" target-y="117.9"></path><path d="M 491.60 281.50 L 479.10 282.00 L 468.80 281.90 L 457.50 281.30 L 443.00 279.90 L 433.10 278.60 L 409.90 274.30 L 397.80 271.50 L 384.90 267.90 L 371.10 263.60 L 361.00 260.00 L 339.80 251.20 L 328.60 246.00 L 317.80 240.40 L 306.80 234.30 L 295.50 227.50 L 284.00 219.90 L 272.90 212.10 L 261.70 203.50 L 250.40 194.10 L 239.00 183.90 L 237.10 182.50 L 231.60 179.80 L 228.00 178.50 L 223.50 177.50 L 217.00 177.10 L 213.30 177.50 L 209.60 178.20 L 205.80 179.60 L 201.70 181.60 L 197.80 184.10 L 193.70 187.40 L 189.40 191.80 L 186.50 195.20 L 180.40 204.20 L 177.10 209.80 L 173.40 217.40 L 169.50 226.60 L 165.60 237.60 L 162.20 248.80 L 158.80 261.80 L 155.50 277.00 L 154.90 281.70 L 154.90 286.20 L 155.50 290.60 L 156.70 294.80 L 158.40 298.80 L 160.60 302.60 L 163.20 306.10 L 166.30 309.20 L 169.80 311.90 L 173.60 314.10 L 177.80 315.80 L 182.30 317.10 L 212.40 322.40 L 249.90 327.70 L 270.60 329.90 L 308.40 332.80 L 340.60 333.80 L 357.00 333.80 L 373.60 333.40 L 390.60 332.50 L 407.50 331.20 L 424.40 329.40 L 441.40 327.00 L 454.10 324.80 L 466.70 322.30 L 491.60 316.20 L 491.60 281.50 Z" fill="#fa8484" fill-rule="nonzero" group-id="1" node-id="27" stroke="#26282b" stroke-linecap="round" stroke-width="16" target-height="156.69998" target-width="336.7" target-x="154.9" target-y="177.1"></path><path d="M 528.00 327.90 L 497.90 327.90 L 494.70 327.60 L 491.70 326.80 L 489.00 325.50 L 486.50 323.70 L 484.40 321.60 L 482.60 319.10 L 481.30 316.40 L 480.50 313.40 L 480.20 310.20 L 480.20 280.20 L 480.50 276.90 L 481.30 274.00 L 482.70 271.20 L 484.40 268.80 L 486.50 266.70 L 489.00 264.90 L 491.70 263.60 L 494.70 262.80 L 497.90 262.50 L 528.00 262.50 L 531.20 262.80 L 534.10 263.60 L 536.90 264.90 L 539.30 266.70 L 541.40 268.80 L 543.20 271.20 L 544.50 274.00 L 545.30 276.90 L 545.60 280.20 L 545.60 310.20 L 545.30 313.40 L 544.50 316.40 L 543.20 319.10 L 541.40 321.60 L 539.30 323.70 L 536.90 325.50 L 534.10 326.80 L 531.20 327.60 L 528.00 327.90 Z" fill="#ff9881" fill-rule="nonzero" group-id="1" node-id="29" stroke="#26282b" stroke-linecap="round" stroke-width="16" target-height="65.399994" target-width="65.39996" target-x="480.2" target-y="262.5"></path></g><path d="M 786.20 953.80 L 239.90 953.80 L 235.10 953.60 L 230.40 952.90 L 226.00 951.70 L 221.70 950.20 L 217.60 948.20 L 213.70 945.80 L 210.10 943.10 L 206.80 940.10 L 203.70 936.80 L 201.10 933.20 L 198.70 929.30 L 196.70 925.20 L 195.10 920.90 L 194.00 916.50 L 193.30 911.80 L 193.00 906.90 L 193.00 509.30 L 833.10 509.30 L 833.10 906.90 L 832.90 911.80 L 832.20 916.50 L 831.00 920.90 L 829.50 925.20 L 827.50 929.30 L 825.10 933.20 L 822.40 936.80 L 819.40 940.10 L 816.10 943.10 L 812.50 945.80 L 808.60 948.20 L 804.50 950.20 L 800.20 951.70 L 795.80 952.90 L 791.10 953.60 L 786.20 953.80 Z" fill="#ff7d7d" fill-rule="nonzero" node-id="32" stroke="#26282b" stroke-linecap="round" stroke-width="16" target-height="444.5" target-width="640.1" target-x="193" target-y="509.3"></path><path d="M 860.80 523.30 L 165.40 523.30 L 165.40 372.20 L 165.70 367.30 L 166.40 362.70 L 167.50 358.20 L 169.10 353.90 L 171.10 349.80 L 173.40 346.00 L 176.10 342.40 L 179.20 339.00 L 182.50 336.00 L 186.10 333.30 L 189.90 331.00 L 194.10 329.00 L 198.30 327.40 L 202.80 326.30 L 207.50 325.60 L 212.30 325.30 L 813.90 325.30 L 818.70 325.60 L 823.40 326.30 L 827.80 327.40 L 832.10 329.00 L 836.30 331.00 L 840.10 333.30 L 843.70 336.00 L 847.00 339.00 L 850.10 342.40 L 852.80 346.00 L 855.10 349.80 L 857.10 353.90 L 858.70 358.20 L 859.80 362.70 L 860.50 367.30 L 860.80 372.20 L 860.80 523.30 Z" fill="#ff5555" fill-rule="nonzero" node-id="34" stroke="#26282b" stroke-linecap="round" stroke-width="16" target-height="198" target-width="695.4" target-x="165.4" target-y="325.3"></path><path d="M 465.90 325.30 L 563.20 325.30 L 563.20 953.80 L 465.90 953.80 Z" fill="#ff9881" fill-rule="nonzero" node-id="36" stroke="#26282b" stroke-linecap="round" stroke-width="16" target-height="628.5" target-width="97.30002" target-x="465.9" target-y="325.3"></path></svg>